<?xml version="1.0" standalone="no"?>
<!DOCTYPE svg PUBLIC "-//W3C//DTD SVG 20010904//EN"
 "http://www.w3.org/TR/2001/REC-SVG-20010904/DTD/svg10.dtd">
<svg version="1.0" xmlns="http://www.w3.org/2000/svg"
 width="450.000000pt" height="450.000000pt" viewBox="0 0 450.000000 450.000000"
 preserveAspectRatio="xMidYMid meet">
<metadata>
Created by potrace 1.15, written by Peter Selinger 2001-2017
</metadata>
<g transform="translate(0.000000,450.000000) scale(0.100000,-0.100000)"
fill="#000000" stroke="none">
<path d="M1907 4299 c-575 -66 -1067 -423 -1318 -954 -179 -380 -220 -860
-110 -1288 79 -304 214 -542 435 -763 235 -235 490 -373 826 -446 94 -20 130
-22 355 -22 209 1 264 4 336 20 l86 20 159 -149 c282 -264 500 -407 734 -482
104 -33 293 -46 381 -25 123 29 255 115 295 192 18 35 18 82 -1 117 -28 56
-80 55 -199 -4 -50 -25 -114 -49 -142 -55 -140 -25 -368 53 -585 201 -88 60
-278 219 -333 277 l-28 31 69 34 c590 298 941 968 884 1692 -21 265 -75 467
-186 690 -311 624 -981 993 -1658 914z m442 -274 c469 -92 848 -418 1020 -877
129 -342 140 -750 29 -1098 -114 -359 -364 -657 -694 -827 l-112 -58 -68 61
c-238 209 -404 311 -601 370 -202 60 -467 22 -717 -103 l-69 -35 -39 39 c-108
103 -241 321 -302 491 -173 483 -110 1048 161 1456 214 322 538 528 928 591
112 18 346 13 464 -10z m-554 -2659 c33 -8 91 -28 129 -45 119 -54 359 -222
336 -236 -23 -14 -304 -8 -400 9 -174 31 -361 100 -494 183 l-49 31 68 22
c143 48 300 61 410 36z"/>
</g>
</svg>
